<svg width="100" height="100" viewBox="0 0 100 100" fill="none" xmlns="http://www.w3.org/2000/svg">
<circle cx="50" cy="50" r="50" fill="#FDBF43"/>
<path d="M66.6666 39.5833H33.3333C31.0321 39.5833 29.1666 41.4487 29.1666 43.7499V64.5833C29.1666 66.8844 31.0321 68.7499 33.3333 68.7499H66.6666C68.9678 68.7499 70.8333 66.8844 70.8333 64.5833V43.7499C70.8333 41.4487 68.9678 39.5833 66.6666 39.5833Z" stroke="white" stroke-width="3" stroke-linecap="round" stroke-linejoin="round"/>
<path d="M58.3333 68.75V35.4167C58.3333 34.3116 57.8943 33.2518 57.1129 32.4704C56.3315 31.689 55.2717 31.25 54.1666 31.25H45.8333C44.7282 31.25 43.6684 31.689 42.887 32.4704C42.1056 33.2518 41.6666 34.3116 41.6666 35.4167V68.75" stroke="white" stroke-width="3" stroke-linecap="round" stroke-linejoin="round"/>
</svg>
