<svg width="100" height="100" viewBox="0 0 100 100" fill="none" xmlns="http://www.w3.org/2000/svg">
<circle cx="50" cy="50" r="50" fill="#5DD6E4"/>
<path d="M65 47.25H33.5C31.0147 47.25 29 49.2647 29 51.75V67.5C29 69.9853 31.0147 72 33.5 72H65C67.4853 72 69.5 69.9853 69.5 67.5V51.75C69.5 49.2647 67.4853 47.25 65 47.25Z" stroke="white" stroke-width="4" stroke-linecap="round" stroke-linejoin="round"/>
<path d="M38 47.25V38.25C38 35.2663 39.1853 32.4048 41.295 30.295C43.4048 28.1853 46.2663 27 49.25 27C52.2337 27 55.0952 28.1853 57.205 30.295C59.3147 32.4048 60.5 35.2663 60.5 38.25V47.25" stroke="white" stroke-width="4" stroke-linecap="round" stroke-linejoin="round"/>
</svg>
